<!-- Generator: Adobe Illustrator 23.0.4, SVG Export Plug-In  -->
<svg version="1.1" xmlns="http://www.w3.org/2000/svg" xmlns:xlink="http://www.w3.org/1999/xlink" x="0px" y="0px"
	 width="418.42px" height="122.49px" viewBox="0 0 418.42 122.49" style="enable-background:new 0 0 418.42 122.49;"
	 xml:space="preserve">
<style type="text/css">
	.st0{fill:#E60012;}
</style>
<defs>
</defs>
<path d="M160.32,111.46h-7.3l-1.07,4.28h7.3L160.32,111.46z M157.24,114.28h-2.52l0.34-1.38h2.52L157.24,114.28z M164.33,107.23
	h2.33l-1.64,0.88c0.54,0.22,0.89,0.44,1.54,0.85h-2.53L164.33,107.23z M149.46,105.48l-4.23,17h3l0.11-0.46h18.57l-0.11,0.46h3.05
	l4.23-17H149.46z M167.34,120.31h-18.57l3.26-13.08h9.84l-0.33,1.74h-9.04l-0.41,1.66h9.17c-0.03,0.21-0.06,0.42-0.09,0.64
	c-0.19,1.57-0.24,3.47,0.17,5.12l0.01,0.04c-0.63,0.45-1.31,0.85-1.94,1.2l0.01-0.03l0.27-1.24l-9.37,0.7l0.01,1.8l8.67-1.03
	l0.07-0.01c-1.23,0.66-2.2,1.06-2.2,1.06l1.37,1.15c0,0,1.64-0.64,3.61-1.9c0.05-0.03,0.1-0.06,0.14-0.09l0.02,0.05
	c1.08,1.75,3.51,1.71,4.63,1.31l0.72-2.6c0,0-1.18,0.77-2.2,0.62c-0.5-0.07-0.89-0.29-1.16-0.87c0.03-0.03,0.06-0.05,0.09-0.08
	c1.55-1.31,3.01-2.98,3.82-5.02h-2.32c-0.4,1.16-1.29,2.36-1.96,2.96c-0.01,0.01-0.03,0.02-0.04,0.03
	c-0.02-0.35-0.03-0.73-0.03-1.16c0-0.87,0.09-1.81,0.21-2.65h5.1l0.45-1.66h-1.8l1.26-0.68c-0.61-0.4-1.27-0.74-1.93-1.05h3.74
	L167.34,120.31z"/>
<path d="M310.56,110.6l0.47-1.87h-9.63l0.85-3.41h-3.3l-0.84,3.41h-4.87c0.35-0.43,0.95-1.26,1.65-2.43h-3.19
	c-0.2,0.34-0.44,0.71-0.71,1.11c-1.33,1.88-3.23,3.66-5.39,5.05l1.58,1.83c1.65-1.1,2.97-2.2,4.42-3.7h6.05l-0.87,3.52h-7.6
	l-0.47,1.87h7.59l-1.04,4.09h-11.54l-0.48,1.94h26.09l0.48-1.94h-11.25l1.04-4.09h8.28l0.47-1.87h-8.29l0.87-3.52H310.56z"/>
<path d="M216.72,113.33l1.95-7.85h-21.23l-1.94,7.85h5.17c-2.05,1.29-4.97,2.22-8.75,2.9l1.23,1.91c2.98-0.7,4.9-1.35,6.96-2.3
	c-0.03,0.11-0.03,0.21-0.04,0.25c-0.37,1.47-1.13,2.31-2.47,2.98c-1.31,0.67-2.73,1.12-5.32,1.59l1.16,1.81
	c6.09-1.15,8.63-2.8,9.71-6.33c0.14-0.44,0.25-0.88,0.25-0.88h-2.06c1.48-0.76,2.1-1.14,3.13-1.92h2.98
	c0.83,0.9,1.21,1.15,2.37,1.92h-1.52l-1.79,7.23h3.11l1.59-6.39c1.42,0.78,3.32,1.46,5.66,2.08l1.85-2.09
	c-3.36-0.63-5.87-1.52-7.46-2.75H216.72z M204.89,111.72h-5.93l0.35-1.44h5.93L204.89,111.72z M205.65,108.67h-5.93l0.36-1.46h5.93
	L205.65,108.67z M208.96,107.21h6.19l-0.36,1.46h-6.19L208.96,107.21z M207.84,111.72l0.36-1.44h6.19l-0.36,1.44H207.84z"/>
<path d="M252.54,111.63h-1.24l1.28-0.79c-1.23-0.28-1.98-0.65-2.41-0.93h2.39l0.25-1.01h-3.14c0.16-0.26,0.27-0.49,0.35-0.68h2.67
	l0.25-1.01h-5.2c0.17-0.17,0.36-0.35,0.54-0.56h5.47l0.34-1.33h-11.97l-1.88,7.63h11.96L252.54,111.63z M242.95,111.63l1.27-4.98
	h2.22c-0.45,0.46-1.11,1-1.98,1.35l1.25,0.69c0,0,0.3-0.11,0.82-0.47h1.82c-0.11,0.19-0.26,0.42-0.49,0.68h-3.37l-0.25,1.01h2.41
	c-1.22,0.71-2.86,0.92-2.86,0.92l0.77,0.79H242.95z M245.8,111.63c0.6-0.2,1.4-0.51,2.16-1c0.18-0.12,0.34-0.24,0.5-0.36
	c0.76,0.79,1.62,1.18,2.14,1.36H245.8z M264.87,114.96l0.31-1.31h-25.99l-0.31,1.31h9.38c-0.03,0.14-0.1,0.41-0.22,0.73h-7.11
	l-1.67,6.79h2.93l0.1-0.46h15.5l-0.12,0.47h3.03l1.7-6.81h-7.25c0.07-0.28,0.13-0.51,0.19-0.73H264.87z M250.76,114.96h2.11
	l-0.22,0.73h-2.14C250.6,115.44,250.68,115.2,250.76,114.96 M258.08,120.76h-15.5l0.18-0.65h15.48L258.08,120.76z M259.03,116.86
	L259.03,116.86L259.03,116.86l-0.52,2.13h-15.49l0.52-2.13l3.75,0c-0.24,0.24-0.54,0.43-0.9,0.53c-1.11,0.3-2.37,0.3-2.37,0.3
	l0.92,0.97c0,0,2.16,0.03,3.51-0.56c0.7-0.3,1.15-0.74,1.49-1.24l2.43,0c-0.06,0.22-0.11,0.41-0.14,0.53
	c-0.18,0.66,0.14,0.99,0.8,1.12c0.43,0.08,0.81,0.11,1.5,0.11c0.7,0,1.13-0.05,1.73-0.13c0.74-0.1,1.1-0.2,1.56-0.37l0.33-1.17
	c-0.36,0.16-0.77,0.3-1.31,0.38c-0.43,0.06-0.86,0.13-1.42,0.1c-0.89-0.05-0.63-0.28-0.57-0.56c0,0,0,0,0-0.01H259.03z
	 M262.78,108.37c0.81-0.01,2.08-0.23,3.07-0.63l0.28-1.39c-0.55,0.24-1.3,0.51-2.26,0.57c-0.3,0.02-0.82-0.03-0.7-0.58l0.26-1.01
	h-6.63c0,0-0.12,0.8-1.02,1.47c-0.72,0.53-2.02,0.7-2.02,0.7l1.13,1.28h-1.07l-0.32,1.16h1.09c0.5,0.48,1.18,0.97,2.05,1.46
	c0.02,0.01,0.04,0.02,0.05,0.03c-1.99,0.39-3.67,0.51-3.67,0.51l0.88,1.35c0,0,2.92-0.29,4.79-0.87c0.03-0.01,0.05-0.02,0.08-0.02
	c2.01,0.67,5.08,0.96,5.08,0.96l1.49-1.43c-1.6-0.04-3.03-0.18-4.14-0.4c1.22-0.56,2.5-1.5,3.28-2.74l-9.39,0
	c0.35-0.08,1.28-0.32,2.25-0.89c0.58-0.34,0.93-0.9,1.14-1.24h2.37C260.59,107.56,260.93,108.38,262.78,108.37 M261.01,109.94
	c-0.47,0.32-1.1,0.64-1.92,0.9c-0.08,0.03-0.16,0.05-0.24,0.07c-0.97-0.4-1.75-0.89-1.87-0.97H261.01z"/>
<path d="M104.92,118.69c-1.44,1.64-2.4,2.44-4.38,3.78l-1.99-1.59c2.01-1.36,2.71-1.8,3.9-3L104.92,118.69z M107,118.54
	c-0.06,0.92-0.21,2.31-0.38,2.98c-0.05,0.22-0.14,0.58-0.21,0.9l3.01-0.16c0.27-1.56,0.32-2.43,0.28-3.93L107,118.54z
	 M112.84,118.48c0.27,1.42,0.31,2.02,0.28,3.84l3.07-0.44c-0.11-1.6-0.26-2.48-0.62-3.84L112.84,118.48z M121.69,117.77l-2.71,0.87
	c1.03,1.33,1.52,2.17,2.11,3.69l3.04-1.19C123.36,119.76,122.74,118.89,121.69,117.77 M122.89,110.67h3.93l-0.47,1.97h-3.93
	l-0.61,2.54h3.27l-0.47,1.97H99.9l0.47-1.97h3.44l0.61-2.54h-3.99l0.47-1.97h3.99l0.47-1.96c-0.75,0.43-1.22,0.68-2.05,1.08
	l-1.4-1.65c2.3-1.1,4.39-2.45,5.95-3.86h3.27c-0.21,0.22-0.54,0.55-0.67,0.67c-0.37,0.33-0.66,0.59-1.43,1.21h17.78l-0.47,1.97
	h-2.85L122.89,110.67z M120.65,108.12h-2.43l-0.61,2.55h2.43L120.65,108.12z M115.04,110.67l0.61-2.55h-2.39l-0.61,2.55H115.04z
	 M112.18,112.64l-0.61,2.54h2.39l0.61-2.54H112.18z M107.74,110.67h2.33l0.61-2.55h-2.33L107.74,110.67z M106.66,115.18H109
	l0.61-2.54h-2.33L106.66,115.18z M119.57,112.64h-2.43l-0.61,2.54h2.43L119.57,112.64z"/>
<rect x="102.63" y="100.65" class="st0" width="313.27" height="0.69"/>
<polygon points="263.78,80.23 261.07,90.84 261.03,90.84 258.5,80.23 253.43,80.23 249.27,96.53 253.03,96.53 255.69,86.11 
	255.73,86.11 258.38,96.53 263.39,96.53 267.54,80.23 "/>
<path d="M242.01,80.23c-3.54,5.47-7.03,10.98-10.73,16.29h4.71l2.82-4.7h5.04l0.28,4.7h4.56c-0.54-5.41-1.2-10.95-1.52-16.29H242.01
	z M240.71,88.41l2.87-4.67h0.04l0.28,4.67H240.71z"/>
<path d="M272.88,84.61c0.22-0.86,1.47-1.16,2.13-1.17c1.27-0.03,2.02,0.32,2.84,0.83c0,0,0.82-3.22,0.84-3.38
	c-1.33-0.75-2.79-0.94-3.87-0.94c-3.83,0-5.82,2.29-6.18,4.22c-0.72,3.8,3.8,5.9,3.31,7.65c-0.36,1.3-1.6,1.37-2.31,1.37
	c-1.21,0-2.35-0.39-3.36-0.96l-0.91,3.79c1.21,0.42,2.96,0.8,4.36,0.81c4.46,0.01,5.88-2.01,6.35-4.24
	C276.88,88.78,272.34,86.72,272.88,84.61"/>
<path d="M229.31,84.61c0.21-0.86,1.47-1.16,2.13-1.17c1.27-0.03,2.02,0.32,2.84,0.83c0,0,1.05-3.1,1.07-3.26
	c-1.42-0.91-3.03-1.06-4.11-1.06c-3.83,0-5.82,2.29-6.18,4.22c-0.72,3.8,3.79,5.9,3.31,7.65c-0.37,1.3-1.61,1.37-2.31,1.37
	c-1.2,0-2.35-0.39-3.35-0.96l-0.91,3.79c1.21,0.42,2.96,0.8,4.35,0.81c4.47,0.01,5.89-2.01,6.36-4.24
	C233.31,88.78,228.76,86.77,229.31,84.61"/>
<polygon points="340.53,90.81 340.49,90.81 337.96,80.21 332.88,80.21 328.72,96.5 332.49,96.5 335.15,86.09 335.19,86.09 
	337.83,96.5 342.85,96.5 347,80.21 343.24,80.21 "/>
<polygon points="292.64,83.7 298.84,83.7 299.74,80.2 289.24,80.2 285.07,96.5 289.37,96.5 291.02,90.05 296.22,90.05 297.11,86.56 
	291.91,86.56 "/>
<polygon points="360.64,80.21 348.52,80.21 347.63,83.69 351.55,83.69 348.28,96.49 352.58,96.49 355.85,83.69 359.74,83.69 "/>
<polygon points="362.15,80.21 357.99,96.5 362.29,96.5 366.45,80.21 "/>
<polygon points="376.16,90.05 377.05,86.55 371.68,86.55 372.41,83.69 379.2,83.69 380.1,80.21 369.01,80.21 364.84,96.5 
	375.93,96.5 376.83,93 370.04,93 370.79,90.05 "/>
<polygon points="403.67,90.05 404.57,86.55 399.06,86.55 399.8,83.69 406.59,83.69 407.48,80.21 396.4,80.21 392.23,96.5 
	403.32,96.5 404.21,93 397.42,93 398.18,90.05 "/>
<path d="M323.15,79.95c-4.85,0-8.93,3.03-10.31,8.42c-1.38,5.42,1.16,8.45,6.01,8.45c4.56,0,8.72-2.69,10.23-7.98
	C330.67,83.1,328,79.95,323.15,79.95 M324.89,88.37c-0.7,2.59-2.69,4.88-5.14,4.88c-2.6,0-3.27-2.34-2.63-4.85
	c0.64-2.52,2.52-4.89,5.11-4.89C324.74,83.51,325.49,85.75,324.89,88.37"/>
<path d="M412.61,84.58c0.24-0.85,1.47-1.16,2.13-1.17c1.27-0.03,2.02,0.32,2.83,0.83c0,0,0.83-3.22,0.85-3.38
	c-1.34-0.75-2.8-0.93-3.88-0.93c-3.82,0-5.82,2.29-6.18,4.22c-0.72,3.8,3.8,5.9,3.31,7.65c-0.37,1.31-1.6,1.37-2.32,1.37
	c-1.2,0-2.34-0.39-3.35-0.96l-0.91,3.79c1.2,0.42,2.96,0.8,4.35,0.8c4.46,0.01,5.89-2.01,6.36-4.23
	C416.61,88.75,412.02,86.66,412.61,84.58"/>
<path d="M308.27,89.34c2.17-0.4,3.86-2.33,4.33-4.17c0.83-3.22-0.12-4.96-3.72-4.97h-7.29l-4.15,16.3h4.1l3.28-12.87h2.11
	c0.62,0,1.94,0,1.5,1.73c-0.33,1.29-1.33,2.14-3.21,2.11h-0.12l-1.4,0l1.49,9.03h4.62C309.82,96.5,308.32,89.69,308.27,89.34"/>
<path d="M388.95,89.33c2.17-0.4,3.86-2.33,4.33-4.17c0.83-3.22-0.12-4.96-3.73-4.96h-7.29l-4.15,16.3h4.1l3.29-12.88h2.11
	c0.61,0,1.94,0,1.5,1.73c-0.33,1.29-1.32,2.14-3.21,2.11h-0.12l-1.4,0l1.5,9.03h4.62C390.51,96.5,389.01,89.68,388.95,89.33"/>
<polygon points="163.58,96.5 164.47,93.02 157.67,93.02 158.43,90.06 163.97,90.06 164.86,86.57 159.32,86.57 160.05,83.71 
	166.84,83.71 167.73,80.22 156.65,80.22 152.49,96.5 "/>
<polygon points="134.83,96.5 135.72,93.02 128.92,93.02 129.68,90.06 135.16,90.06 136.05,86.57 130.57,86.57 131.3,83.71 
	138.09,83.71 138.98,80.22 127.9,80.22 123.74,96.5 "/>
<path d="M172.86,96.77c0.78,0,2.93-0.25,4.15-0.46l1.03-3.77c-1.27,0.35-2.57,0.66-4.27,0.66c-2.64,0-3.3-2.34-2.65-4.85
	c0.56-2.18,2.54-4.89,5.89-4.89c1.11,0,2.11,0.29,3.1,0.66l0.93-3.66c-1.01-0.38-2.63-0.56-3.83-0.56c-4.9,0-9.03,3.03-10.42,8.42
	C165.39,93.74,167.96,96.77,172.86,96.77"/>
<polygon points="183.43,96.5 187.59,80.22 183.29,80.22 179.14,96.5 "/>
<polygon points="111.17,84.86 111.21,84.86 110.98,96.5 114.64,96.51 120.45,84.84 120.49,84.84 117.52,96.5 121.16,96.5 
	125.31,80.22 119.6,80.22 114.53,90.45 114.49,90.45 114.77,80.22 108.72,80.22 104.56,96.5 108.2,96.5 "/>
<polygon points="189.77,96.5 192.42,86.11 192.46,86.11 195.11,96.5 200.12,96.5 204.28,80.22 200.51,80.22 197.81,90.82 
	197.77,90.82 195.24,80.22 190.18,80.22 186,96.5 "/>
<path d="M152.94,88.35c1.76-6.89-1.97-8.13-3.98-8.13h-7.72l-4.15,16.29h6.81C148.61,96.5,151.73,93.09,152.94,88.35 M148.65,88.35
	c-0.61,2.39-2.32,4.67-4.69,4.67h-1.86l2.37-9.31h2.15C148.91,83.71,149.42,85.32,148.65,88.35"/>
<path d="M209.62,84.61c0.22-0.86,1.47-1.16,2.13-1.17c1.27-0.03,2.02,0.32,2.84,0.83c0,0,0.82-3.22,0.84-3.38
	c-1.33-0.75-2.8-0.94-3.87-0.94c-3.83,0-5.82,2.29-6.19,4.22c-0.72,3.8,3.8,5.9,3.31,7.65c-0.37,1.31-1.61,1.37-2.31,1.37
	c-1.2,0-2.35-0.39-3.35-0.96l-0.91,3.79c1.2,0.42,2.96,0.8,4.36,0.81c4.47,0.01,5.88-2.01,6.35-4.23
	C213.63,88.78,209.07,86.76,209.62,84.61"/>
<path class="st0" d="M43.96,105.51c1.19-0.7,3.87-2.13,4.19-2.32c0.51-0.3,0.82-0.27,0.84-0.11c0.06,0.61,0.05,1.89,0.82,2.15
	c0.22,0.07,0.8-0.2,0.91-0.04c0.28,0.42,0.3,0.34,0.38,0.47c0.09,0.15,0.48,0.07,0.56,0.14c0.22,0.2-0.01,0.45,0.11,0.59
	c0.2,0.21,0.57-0.14,0.77-0.1c0.35,0.07,0.43,0.46,0.38,0.71c-0.1,0.41,0.16,0.73,0.83,0.17c0.35-0.29,0.38-0.14,0.68-0.29
	c0.18-0.09,0.48-0.08,0.61,0.05c0.13,0.13,0.33,0.35,0.52,0.42c0.28,0.1,0.58,0,0.76,0.07c0.26,0.1,0.27,0.49,0.49,0.52
	c0.22,0.03,0.45-0.4,0.59-0.27c0.4,0.38-0.34,1.03,0.17,1.18c0.28,0.08,0.39-0.14,0.61-0.17c0.22-0.03,0.35-0.3,0.55-0.3
	c0.19,0,0.33,0.22,0.57,0.09c0.2-0.11,0.36-0.19,0.54-0.3c0.27-0.16,0.55-0.08,0.71-0.21c0.19-0.15,0.04-0.57,0.61-0.47
	c0.58,0.11-0.09,0.64,0.16,0.85c0.2,0.17,0.67,0.01,0.83-0.05c0.31-0.1,0.6-0.49,0.7-0.75c0.13-0.32,0.61-1.38,0.8-1.66
	c0.19-0.29,0.67-1.41,0.92-1.79c0.26-0.38,1.28-2.01,1.37-2.26c0.1-0.26,0.46-0.61,0.56-0.8c0.1-0.19,0.31-0.83,0.56-1.34
	c0.26-0.51,0.96-1.53,1.02-1.72c0.06-0.19,0.6-1.44,0.8-1.82c0.19-0.38,0.86-1.26,1.03-1.67c0.16-0.41,0.6-1.29,0.6-1.29l0.48-0.79
	c0,0,0.16-0.35,0.38-0.83c0.23-0.48,0.9-1.5,1.09-1.85c0.19-0.35,0.73-1.09,0.73-1.09l0.41-0.92l0.32-0.7c0,0,0.26-0.83,0.38-1.06
	c0.13-0.22,0.57-0.76,0.7-1.05c0.13-0.29,0.51-1.57,0.7-1.95c0.19-0.38,1.12-2.04,1.21-2.36c0.09-0.32,1.05-2.04,1.15-2.39
	c0.1-0.35,0.13-0.83,0.25-1.06c0.13-0.22,0.51-0.8,0.57-0.96c0.06-0.16,0.7-1.69,0.8-1.91c0.1-0.22,0.16-0.64,0.42-0.64
	c0.25,0,0.44,0.28,0.61,0.51c0.19,0.27,0.57,0.22,0.8,0.45c0.22,0.22,0.95,1.02,0.99,1.15c0.03,0.13,0.44,0.16,0.54,0.28
	c0.1,0.13,0.16,0.45,0.29,0.51c0.13,0.06,0.77,0.51,0.89,0.7c0.13,0.19,0.29,0.58,0.45,0.7c0.16,0.13,0.89,0.58,0.99,0.77
	c0.1,0.19,1.15,1.47,1.28,1.69c0.13,0.22,0.23,0.61,0.32,0.77c0.1,0.16,0.48,0.38,0.51,0.54c0.03,0.16,0.06,0.73,0.16,0.89
	c0.09,0.16,0.54,0.35,0.61,0.51c0.06,0.16,0.26,0.76,0.35,0.86c0.1,0.09,0.28,0.22,0.35,0.35c0.07,0.13,0.13,0.84,0.23,0.96
	c0.09,0.13,0.41,0.67,0.51,0.9c0.1,0.22,0.42,0.64,0.48,0.8c0.06,0.16,0.09,0.8,0.16,1.02c0.06,0.22,0.35,0.7,0.38,0.84
	c0.03,0.12,0.1,0.51,0.1,0.51l0.26,0.61c0,0,0.29,0.6,0.29,0.83c0,0.22,0.06,0.48,0.09,0.64c0.04,0.16,0.29,0.57,0.29,0.7
	c0,0.13,0.35,0.86,0.35,0.86s-0.07,0.64,0,0.8c0.06,0.16,0.35,0.6,0.35,0.76c0,0.16-0.09,0.58-0.09,0.58l0.16,0.26
	c0,0-0.1,0.35-0.03,0.48c0.06,0.13-0.06,0.42,0.03,0.51c0.09,0.1,0.35,0.77,0.35,0.77c-0.19,0.23-13.51,6.38-19.21,9.04
	c-8.22,3.84-25.32,12.41-27.14,13.46c-1.82,1.05-2.96,1.66-3.4,1.43c-1.01-0.52-2.65-1.98-3.78-5.11c-0.95-2.64-0.95-4.83-0.88-5.93
	c0.06-0.84,0-1.47,1.27-2.21C40.42,107.54,42.77,106.22,43.96,105.51"/>
<path class="st0" d="M20.28,58.37c0.07,0.14,0.35,0.11,0.55,0.17c0.11,0.03,0.33,0.23,0.46,0.25c0.13,0.02,0.32-0.05,0.39,0
	c0.21,0.16,0.17,0.37,0.3,0.56c0.13,0.19,0.19,0.51,0.38,0.58c0.19,0.07,0.45,0.03,0.51,0.22c0.06,0.19-0.08,0.49,0.06,0.73
	c0.36,0.63,0.05,2.39,0.37,2.52c0.32,0.13,1.28-0.18,1.61-0.48c0.34-0.31,0.83-0.84,1.08-0.96c0.5-0.22,1.46-0.74,1.92-0.83
	c0.46-0.09,0.7-0.85,1.15-0.89c0.45-0.04,0.29-0.4,0.61-0.53c0.32-0.13,0.92-0.46,1.11-0.26c0.09,0.09,0.27,0.33,0.56,0.44
	c0.35,0.14,0.73-0.04,0.79,0.34c0.1,0.57,0.96,0.06,0.96,0.06s1.06-0.69,1.51-0.88c0.45-0.19,1.63-0.81,1.63-0.81
	s0.94-0.49,1.33-0.67c14.38-6.9,25.72-10.71,36.13-14.74c16.21-6.28,44.26-13.48,49.6-14.81c0.56-0.14,1.8-0.33,1.96-0.42
	c0.15-0.09,0.4-0.15,0.53-0.66c0.13-0.51-0.25-1.21-0.25-1.47c0-0.26,0.57-1.28,0.64-1.73c0.07-0.44-0.38-0.51-0.38-0.51
	s0.06-0.55-0.06-0.96c-0.12-0.41-0.83-0.77-0.96-1.09c-0.13-0.32,0-1.27-0.13-1.6c-0.12-0.32-0.51-0.57-0.51-0.57s0.09-0.17,0-0.45
	c-0.09-0.28-0.38-0.26-0.38-0.26s0.11-0.61,0.07-0.83c-0.05-0.22-0.38-0.38-0.38-0.38s-0.39-0.26-0.39-0.51
	c0-0.26-0.06-0.45-0.25-0.58c-0.19-0.13-0.77-0.13-0.96-0.19c-0.19-0.06-0.64-0.19-0.96-0.13c-0.32,0.06-0.45,0.32-1.34,0.51
	c-0.89,0.19-1.27,0-1.66,0.07c-0.39,0.07-0.83,0.33-1.28,0.44c-4.34,1.13-24.26,6.93-38.94,12.45
	c-13.65,5.13-29.91,12.53-39.83,17.68c-7.5,3.9-11.52,6.16-13.18,7.18c-0.86,0.53-1.8,1.15-1.94,1.4c-0.22,0.39-0.49,0.98-0.98,1.05
	c-0.6,0.09-0.52,0.41-0.71,0.46c-0.22,0.05-0.48,0.3-0.67,0.48C20.14,57.97,20.22,58.22,20.28,58.37"/>
<path class="st0" d="M82.28,49.46c-0.66-0.4-0.44-0.77,0.33-1.1c4.75-2.03,16.74-6.31,23.62-8.49c5.87-1.86,22.09-7.14,26.61-8.44
	c1.08-0.31,1.52-0.3,2,0.21c1.22,1.3,2.41,3.05,3.54,5.23c1.04,2.01,1.93,4.91,2.28,6.74c0.26,1.34-0.36,1.57-1.08,1.89
	c-5.02,2.24-17.4,7.67-22.55,10.1c-5.03,2.38-14.23,6.8-17.35,8.37c-1.32,0.66-1.1,0.93-1.99-0.09c-0.27-0.31-0.71-1.02-0.83-1.21
	c-0.13-0.19-1.85-1.72-2.05-1.92c-0.19-0.19-1.15-1.34-1.4-1.53c-0.26-0.19-1.09-1.34-1.34-1.47c-0.26-0.13-0.69-0.33-0.88-0.52
	c-0.19-0.19-0.53-0.59-0.72-0.72c-0.19-0.13-0.62-0.58-0.62-0.58l-0.59-0.54l-0.51-0.58c0,0-0.45-0.57-0.77-0.7
	c-0.32-0.13-0.77-0.64-0.89-0.83c-0.13-0.19-1.15-1.47-1.66-1.79c-0.51-0.32-1.74-1.12-1.99-1.31
	C83.18,49.98,82.84,49.79,82.28,49.46"/>
<path class="st0" d="M100.55,66.95c-0.49-0.49,0.14-0.56,0.7-0.78c2.1-0.81,14.59-4.72,25.47-7.58c10.84-2.85,26.53-6.1,28.86-6.58
	c0.98-0.2,1.35-0.05,1.85,0.75c0.58,0.93,1.77,4.02,2.23,6.51c0.59,3.16,0.03,6.39-0.25,7.15c-0.24,0.64-1.12,0.68-3.24,1.26
	c-1.27,0.35-6.68,1.74-8.89,2.38c-2.55,0.74-9.32,2.7-11.81,3.55c-3.08,1.05-7.14,2.39-7.14,2.39l-21.52,0.36
	c0,0-0.32-1.45-0.51-1.58c-0.19-0.13-0.51-0.83-0.7-1.02c-0.19-0.19-0.45-0.89-0.45-0.89s-0.19-0.76-0.38-0.9
	c-0.19-0.13-0.65-1.23-0.85-1.35c-0.2-0.13-0.62-0.68-0.82-0.94c-0.19-0.25-0.3-0.58-0.62-0.83c-0.32-0.26-0.72-0.77-0.97-0.89
	C101.26,67.83,101.04,67.44,100.55,66.95"/>
<path class="st0" d="M74.53,25.46c-0.61,0.02-1.15,0.01-1.29-0.17c-0.08-0.11,0.01-0.28-0.14-0.41c-0.15-0.14-0.45-0.1-0.55-0.02
	c-0.1,0.07-0.07,0.07-0.29,0.14c-0.21,0.07-1.03-0.22-1.32-0.12c-0.29,0.09-0.9,0.12-1.1,0.02c-0.21-0.1-0.24-0.66-0.6-0.82
	c-0.19-0.08-0.79-0.41-0.98-0.74c-0.19-0.34-0.7-0.83-0.8-1.07c-0.11-0.24-0.27-0.62-0.35-0.82c-0.07-0.2-0.26-0.6-0.38-0.74
	c-0.12-0.14-0.29-0.27-0.41-0.41c-0.13-0.14-0.23-0.59-0.36-0.79c-0.07-0.1-0.21-0.3-0.29-0.46c-0.08-0.15-0.07-0.33-0.14-0.5
	c-0.07-0.17-0.29-0.43-0.34-0.6c-0.05-0.17-0.12-1.3-0.1-2.15c0.02-0.86,0-1.62,0.1-1.99c0.09-0.35,0.26-0.67,0.34-1.03
	c0.07-0.36,0.53-1.53,0.64-2.08c0.12-0.55,0.41-1.58,0.55-1.94c0.14-0.36,0.52-1.31,0.72-1.63c0.19-0.31,0.91-1.39,1.2-1.75
	c0.28-0.36,1.6-1.68,1.91-1.92c0.31-0.24,1.03-0.77,1.27-0.93c0.14-0.1,1.07-0.75,1.37-0.93c0.22-0.14,0.58-0.14,0.58-0.14
	l0.31-0.31c0,0,0.17-0.19,0.34-0.31c0.17-0.12,0.57-0.12,0.57-0.12s0.47-0.37,0.96-0.27c0.22,0.05,0.36-0.33,0.55-0.38
	c0.19-0.05,0.89-0.14,0.98-0.05c0.1,0.1,0.22,0.22,0.6,0.29c0.38,0.07,0.71-0.02,0.86,0.02c0.2,0.05,0.41,0.31,0.55,0.36
	c0.14,0.05,1.89,1.66,2.13,2.06c0.08,0.14,0.11,0.4,0.15,0.48c0.07,0.14,0.37,0.32,0.48,0.77c0.08,0.35,0.44,0.46,0.48,0.96
	c0.03,0.3,0.59,0.55,0.74,1.17C83.5,6.29,83.57,6.9,83.62,7c0.05,0.1,0.18,0.13,0.25,0.35c0.07,0.21,0.12,0.53,0.1,0.79
	c-0.03,0.26,0.45,1.25,0.4,1.84c-0.05,0.6-0.17,1.24-0.31,1.7c-0.14,0.45-0.05,1.31-0.14,1.68c-0.1,0.36-0.36,1.22-0.41,1.48
	c-0.05,0.26-0.79,2.08-0.91,2.28c-0.12,0.19-0.54,1.01-0.73,1.25c-0.19,0.24-1.67,2.29-1.93,2.56c-0.27,0.26-0.93,0.75-1.05,0.95
	c-0.17,0.27-0.32,0.59-0.5,0.89c-0.29,0.47-0.69,0.12-0.89,0.45c-0.27,0.45-0.77,0.57-0.86,0.84c-0.13,0.41-0.47,0.76-0.62,0.88
	C75.66,25.23,74.9,25.45,74.53,25.46"/>
<path class="st0" d="M31.53,88.53c0,0-6.3,2.13-8.81,3.02c-2.38,0.85-4.99,1.77-6.75,2.49c-2.13,0.87-5.9,2.4-6.8,2.72
	c-1.4,0.49-2,0.2-2.38-0.64c-0.38-0.83-1.29-2.57-1.8-4.6c-0.51-2.05-0.69-3.74-0.72-4.37c-0.03-0.63,0.49-1.76,1.26-2.17
	c0.77-0.42,2.6-1.54,4.07-2.39c2.8-1.61,12.48-6.77,18.23-9.75c6.1-3.16,15.72-7.82,20.89-10.37c5.17-2.55,13.66-6.58,14.69-7.02
	c1.02-0.45,2.1-0.96,2.62-0.96c0.51,0,0.32,0.26,0.32,0.45c0,0.19-0.18,0.27-0.24,0.65c-0.07,0.38-0.02,0.82-0.14,1.2
	c-0.13,0.38-0.46,0.75-0.53,1c-0.06,0.26-0.11,1.17-0.37,1.48c-0.25,0.32-1.16,2.09-1.36,2.92c-0.19,0.83-0.62,2.19-0.81,2.51
	c-0.19,0.32-0.8,1.52-0.86,1.9c-0.06,0.38-0.48,1.29-0.61,1.68c-0.13,0.38-0.89,1.8-1.02,2.06c-0.13,0.26-0.64,1.97-0.77,2.22
	C59.51,72.81,59,73.57,59,73.57l-0.26,1.09c0,0-0.7,1.02-0.7,1.21c0,0.19-0.51,1.92-0.76,2.3c-0.26,0.38-1.47,3.13-1.73,4.08
	c-0.26,0.96-0.7,2.36-0.83,2.68c-0.13,0.32-0.83,1.47-0.96,1.85c-0.13,0.39-0.7,2.3-0.89,2.68c-0.19,0.39-0.7,1.47-0.7,1.85
	s-0.38,1.21-0.7,1.91c-0.32,0.7-0.7,1.92-0.89,2.36c-0.19,0.45-0.45,0.76-0.51,1.02c-0.06,0.25-0.12,0.96-0.19,1.16
	c-0.06,0.19-0.19,0.51-0.19,0.51c-0.32,0.15-17.49,7.53-19.91,8.68c-2.43,1.15-19.85,9.4-20.94,9.92c-1.08,0.51-2.53,1.62-3.58,0.91
	c-1.38-0.94-2.69-2.9-3.58-4.64c-0.74-1.45-1.54-3.87-1.66-5.62c-0.15-2.2,0.77-2.6,4-4.47c1.58-0.92,14.12-7.53,18.14-9.61
	C23.29,92.87,31.53,88.53,31.53,88.53"/>
</svg>
